<svg width="53" height="53" viewBox="0 0 53 53" fill="none" xmlns="http://www.w3.org/2000/svg">
<path fill-rule="evenodd" clip-rule="evenodd" d="M20.4712 34.9855C26.4155 30.1488 33.896 20.1418 35.9665 9.88465C36.7679 5.96525 36.3672 2.87977 34.4303 0.711596C33.4952 -0.372494 32.5602 -0.205713 31.5583 1.12855C24.867 9.81068 17.4025 24.5265 14.7973 38.7965C14.7441 38.8712 14.6928 38.9626 14.6443 39.0717C12.6406 44.8257 8.96711 50.3295 5.96156 50.4963C3.82427 50.6631 3.69069 47.4108 5.29366 42.5741C6.11757 40.1248 7.42546 37.1576 8.64873 34.3823C9.50791 32.4331 10.3253 30.5785 10.904 29.0647C12.507 24.8951 11.9727 21.3093 10.9708 19.975C10.4365 19.2245 9.96896 19.4747 9.36785 20.4754C6.89662 24.8117 2.48847 34.6519 0.818723 40.7395C-1.0514 47.5776 0.217613 52.9146 5.29366 52.9146C8.51935 52.9146 12.0928 50.3096 14.3002 46.2763C14.7717 50.6092 16.9575 52.6304 20.204 52.7478C24.2987 52.8757 28.1189 48.8406 30.1014 45.8221C31.2157 50.1806 34.1588 53.0867 38.6694 52.998C43.8122 52.9146 48.955 49.0786 51.7602 43.9917C52.9624 41.8236 53.1628 39.4886 52.8956 38.8215C52.6285 38.071 52.0942 38.071 51.7602 38.7381C48.8882 44.2419 44.0126 50.9132 38.469 50.5797C34.9291 50.3295 33.3262 45.0758 35.4634 37.4038C40.1387 42.1571 44.6137 39.989 47.8864 34.9855C50.6916 30.7325 51.2259 25.6456 50.0237 23.6442C48.955 21.8096 47.7528 20.5588 46.0831 19.3079C42.7436 16.8895 35.931 21.2259 31.5896 31.9834C30.4199 34.8818 29.7787 37.7561 29.632 40.4055C26.9464 45.9799 22.9257 50.71 20.0704 50.4129C17.0649 50.0793 17.7996 43.1578 20.4712 34.9855ZM21.6734 31.3996C22.1409 30.0654 22.6752 28.7311 23.2763 27.3969C27.8849 16.7228 32.8273 7.4663 33.6956 8.13343C34.5639 8.80056 30.8236 22.1432 21.6734 31.3996ZM36.5988 34.1517C36.3985 34.652 36.1981 35.1523 36.0646 35.5692C39.3373 38.1544 42.0757 34.5685 44.0126 31.3996C46.1498 27.8972 47.6192 23.5608 46.6842 22.6435C45.2816 21.2259 39.738 26.2295 36.5988 34.1517Z" fill="#FFC42D"/>
<path fill-rule="evenodd" clip-rule="evenodd" d="M20.4712 34.9855C26.4155 30.1488 33.896 20.1418 35.9665 9.88465C36.7679 5.96525 36.3672 2.87977 34.4303 0.711596C33.4952 -0.372494 32.5602 -0.205713 31.5583 1.12855C24.867 9.81068 17.4025 24.5265 14.7973 38.7965C14.7441 38.8712 14.6928 38.9626 14.6443 39.0717C12.6406 44.8257 8.96711 50.3295 5.96156 50.4963C3.82427 50.6631 3.69069 47.4108 5.29366 42.5741C6.11757 40.1248 7.42546 37.1576 8.64873 34.3823C9.50791 32.4331 10.3253 30.5785 10.904 29.0647C12.507 24.8951 11.9727 21.3093 10.9708 19.975C10.4365 19.2245 9.96896 19.4747 9.36785 20.4754C6.89662 24.8117 2.48847 34.6519 0.818723 40.7395C-1.0514 47.5776 0.217613 52.9146 5.29366 52.9146C8.51935 52.9146 12.0928 50.3096 14.3002 46.2763C14.7717 50.6092 16.9575 52.6304 20.204 52.7478C24.2987 52.8757 28.1189 48.8406 30.1014 45.8221C31.2157 50.1806 34.1588 53.0867 38.6694 52.998C43.8122 52.9146 48.955 49.0786 51.7602 43.9917C52.9624 41.8236 53.1628 39.4886 52.8956 38.8215C52.6285 38.071 52.0942 38.071 51.7602 38.7381C48.8882 44.2419 44.0126 50.9132 38.469 50.5797C34.9291 50.3295 33.3262 45.0758 35.4634 37.4038C40.1387 42.1571 44.6137 39.989 47.8864 34.9855C50.6916 30.7325 51.2259 25.6456 50.0237 23.6442C48.955 21.8096 47.7528 20.5588 46.0831 19.3079C42.7436 16.8895 35.931 21.2259 31.5896 31.9834C30.4199 34.8818 29.7787 37.7561 29.632 40.4055C26.9464 45.9799 22.9257 50.71 20.0704 50.4129C17.0649 50.0793 17.7996 43.1578 20.4712 34.9855ZM21.6734 31.3996C22.1409 30.0654 22.6752 28.7311 23.2763 27.3969C27.8849 16.7228 32.8273 7.4663 33.6956 8.13343C34.5639 8.80056 30.8236 22.1432 21.6734 31.3996ZM36.5988 34.1517C36.3985 34.652 36.1981 35.1523 36.0646 35.5692C39.3373 38.1544 42.0757 34.5685 44.0126 31.3996C46.1498 27.8972 47.6192 23.5608 46.6842 22.6435C45.2816 21.2259 39.738 26.2295 36.5988 34.1517Z" fill="url(#paint0_linear_397_9992)"/>
<path d="M16.1804 13.3871C15.3122 11.1355 13.3753 10.1348 12.3066 11.5525C11.238 12.9701 10.904 15.4719 11.9727 17.7234C12.9745 19.8916 14.8446 20.1418 15.7129 18.9743C16.5812 17.8068 17.0487 15.5553 16.1804 13.3871Z" fill="#FFC42D"/>
<path d="M16.1804 13.3871C15.3122 11.1355 13.3753 10.1348 12.3066 11.5525C11.238 12.9701 10.904 15.4719 11.9727 17.7234C12.9745 19.8916 14.8446 20.1418 15.7129 18.9743C16.5812 17.8068 17.0487 15.5553 16.1804 13.3871Z" fill="url(#paint1_linear_397_9992)"/>
<path fill-rule="evenodd" clip-rule="evenodd" d="M41.6351 16.1259C41.9686 15.8809 42.1928 15.4926 42.2871 15.0606L46.3059 12.1085C46.3059 12.1085 48.8011 10.0704 47.0809 10.0866L45.3608 10.1029L44.9969 10.3701L44.9713 11.8372L44.0413 11.2247L44.0184 12.5372L43.0884 11.9247L43.0655 13.2372L42.0259 12.5526L41.474 12.958C41.0719 12.7433 40.5962 12.7618 40.1903 13.0599L39.1367 13.8339C38.4586 14.332 38.2324 15.4222 38.6313 16.2688C39.0303 17.1154 39.9034 17.398 40.5815 16.8999L41.6351 16.1259ZM39.9363 15.5308L40.99 14.7568C41.0625 14.7036 41.0867 14.587 41.044 14.4965C41.0014 14.4059 40.908 14.3757 40.8355 14.429L39.7819 15.203C39.7093 15.2562 39.6851 15.3728 39.7278 15.4633C39.7705 15.5539 39.8638 15.5841 39.9363 15.5308Z" fill="#FFC42D"/>
<path fill-rule="evenodd" clip-rule="evenodd" d="M41.6351 16.1259C41.9686 15.8809 42.1928 15.4926 42.2871 15.0606L46.3059 12.1085C46.3059 12.1085 48.8011 10.0704 47.0809 10.0866L45.3608 10.1029L44.9969 10.3701L44.9713 11.8372L44.0413 11.2247L44.0184 12.5372L43.0884 11.9247L43.0655 13.2372L42.0259 12.5526L41.474 12.958C41.0719 12.7433 40.5962 12.7618 40.1903 13.0599L39.1367 13.8339C38.4586 14.332 38.2324 15.4222 38.6313 16.2688C39.0303 17.1154 39.9034 17.398 40.5815 16.8999L41.6351 16.1259ZM39.9363 15.5308L40.99 14.7568C41.0625 14.7036 41.0867 14.587 41.044 14.4965C41.0014 14.4059 40.908 14.3757 40.8355 14.429L39.7819 15.203C39.7093 15.2562 39.6851 15.3728 39.7278 15.4633C39.7705 15.5539 39.8638 15.5841 39.9363 15.5308Z" fill="url(#paint2_linear_397_9992)"/>
<defs>
<linearGradient id="paint0_linear_397_9992" x1="26.5" y1="0" x2="26.5" y2="53" gradientUnits="userSpaceOnUse">
<stop stop-color="#FFC42D"/>
<stop offset="1" stop-color="#FF9921"/>
</linearGradient>
<linearGradient id="paint1_linear_397_9992" x1="26.5" y1="0" x2="26.5" y2="53" gradientUnits="userSpaceOnUse">
<stop stop-color="#FFC42D"/>
<stop offset="1" stop-color="#FF9921"/>
</linearGradient>
<linearGradient id="paint2_linear_397_9992" x1="26.5" y1="0" x2="26.5" y2="53" gradientUnits="userSpaceOnUse">
<stop stop-color="#FFC42D"/>
<stop offset="1" stop-color="#FF9921"/>
</linearGradient>
</defs>
</svg>
