<svg xmlns="http://www.w3.org/2000/svg" xmlns:xlink="http://www.w3.org/1999/xlink" version="1.1" x="0px" y="0px" viewBox="0 0 27 33.75" style="enable-background:new 0 0 27 27;" xml:space="preserve"><g><path d="M22.2756462,4.2000108c-0.2099609-0.7600098-0.8100586-1.3699951-1.5700684-1.5899658   c-2.3200684-0.6600341-4.7099619-1.0300292-7.1201181-1.1100463h-0.1799316   C11.0056257,1.5800158,8.6157331,1.9500109,6.2956648,2.610045C5.535655,2.8300157,4.9355574,3.440001,4.7255964,4.2000108   C3.1855576,9.8900137,3.1855576,16.1500225,4.7356062,22.8200054c0.1899414,0.8099976,0.8300781,1.4700317,1.630127,1.6900024   c4.7643929,1.2680187,9.5947504,1.3709602,14.3098154,0c0.7900391-0.2299805,1.4001465-0.8699951,1.5800781-1.6799927   C23.8156853,16.1600323,23.8156853,9.9000235,22.2756462,4.2000108z M16.6955681,19.4700298h-6.3898935   c-0.5500488,0-1-0.4500122-1-1s0.4499512-1,1-1h6.3898935c0.5500488,0,1,0.4500122,1,1   S17.2456169,19.4700298,16.6955681,19.4700298z M19.1855583,12.1900015c-0.5735264,2.3268824-3.9887075,2.663413-6.54004,2.0100098   c-2.49228-0.6142855-5.4336934-2.484726-4.8398438-4.8599854c0.4899902-1.9600224,3.3100586-2.8200078,6.5498047-2.0100102   C16.8092041,7.9346938,19.7822704,9.8032894,19.1855583,12.1900015z"/></g><text x="0" y="42" fill="#000000" font-size="5px" font-weight="bold" font-family="'Helvetica Neue', Helvetica, Arial-Unicode, Arial, Sans-serif">Created by Brickclay</text><text x="0" y="47" fill="#000000" font-size="5px" font-weight="bold" font-family="'Helvetica Neue', Helvetica, Arial-Unicode, Arial, Sans-serif">from the Noun Project</text></svg>